<svg width="162" height="34" viewBox="0 0 162 34" xmlns="http://www.w3.org/2000/svg"><title>netSIGN</title><path d="M.504 33h4.224V19.032c0-.72.096-1.44.288-1.968.72-2.352 2.88-4.32 5.664-4.32 3.984 0 5.376 3.12 5.376 6.864V33h4.224V19.128c0-7.968-4.992-9.888-8.208-9.888-3.84 0-6.528 2.16-7.68 4.368h-.096l-.24-3.84H.312c.144 1.92.192 3.888.192 6.288V33zm45.972-10.848h-16.32c.096 5.712 3.744 8.064 7.968 8.064 3.024 0 4.848-.528 6.432-1.2l.72 3.024c-1.488.672-4.032 1.44-7.728 1.44-7.152 0-11.424-4.704-11.424-11.712S30.252 9.24 37.02 9.24c7.584 0 9.6 6.672 9.6 10.944 0 .864-.096 1.536-.144 1.968zm-16.272-3.024H42.54c.048-2.688-1.104-6.864-5.856-6.864-4.272 0-6.144 3.936-6.48 6.864zM53.472 4.2v5.568h-3.6v3.216h3.6v12.672c0 2.736.432 4.8 1.632 6.048 1.008 1.152 2.592 1.776 4.56 1.776 1.632 0 2.928-.24 3.744-.576l-.192-3.168c-.528.144-1.344.288-2.448.288-2.352 0-3.168-1.632-3.168-4.512V12.984h6.048V9.768H57.6V3.096L53.472 4.2zm14.1 27.216c1.728 1.152 5.136 2.064 8.256 2.064 7.632 0 11.328-4.32 11.328-9.312 0-4.752-2.784-7.392-8.256-9.504-4.464-1.728-6.432-3.216-6.432-6.24 0-2.208 1.68-4.848 6.096-4.848 2.928 0 5.088.96 6.144 1.536l1.152-3.408C84.42.888 82.02.12 78.708.12c-6.288 0-10.464 3.744-10.464 8.784 0 4.56 3.264 7.296 8.544 9.168 4.368 1.68 6.096 3.408 6.096 6.432 0 3.264-2.496 5.52-6.768 5.52-2.88 0-5.616-.96-7.488-2.112l-1.056 3.504zM93.528.648V33h4.176V.648h-4.176zm36.756 15.36h-10.656v3.36h6.576v9.648c-.96.48-2.832.864-5.568.864-7.536 0-12.48-4.848-12.48-13.056 0-8.112 5.136-13.008 13.008-13.008 3.264 0 5.424.624 7.152 1.392l1.008-3.408c-1.392-.672-4.32-1.488-8.064-1.488-10.848 0-17.472 7.056-17.52 16.704 0 5.04 1.728 9.36 4.512 12.048 3.168 3.024 7.2 4.272 12.096 4.272 4.368 0 8.064-1.104 9.936-1.776V16.008zM141.264 33V19.176c0-5.376-.096-9.264-.336-13.344l.144-.048c1.632 3.504 3.792 7.2 6.048 10.8L157.392 33h4.224V.648h-3.936v13.536c0 5.04.096 8.976.48 13.296l-.096.048c-1.536-3.312-3.408-6.72-5.808-10.512L141.888.648h-4.56V33h3.936z" fill="#4A4A4A" fill-rule="evenodd"/></svg>