<svg width="114" height="59" viewBox="0 0 114 59" xmlns="http://www.w3.org/2000/svg"><title>point-right</title><path d="M24.329 10.117c3.071-2.59 9.954-6.91 13.763-8.39C41.04.617 44.48 0 47.675 0c2.826 0 3.071 0 8.234 1.357.983.247 2.703.617 4.914 1.11 4.548.988 6.882 2.592 10.937 7.529 8.355 1.357 8.602 1.48 25.189 2.467 6.88.37 10.566.987 13.025 2.098 2.089.863 3.563 3.207 3.563 5.552 0 3.454-2.703 5.552-8.477 6.539-1.966.246-5.898.37-14.746.37H79.748c1.474 2.344 1.843 3.578 1.843 5.675 0 4.318-2.95 7.281-7.25 7.65.49 1.48.736 2.344.736 3.207 0 4.442-3.563 8.143-7.617 8.143-.737 0-1.352-.123-2.703-.493.123.617.245 1.234.245 1.604 0 2.963-3.194 5.552-6.88 5.552-1.351 0-3.072-.37-6.02-1.357-2.703.246-4.546.37-5.775.37-5.037 0-8.723-1.604-18.923-7.775-3.931-2.344-4.548-2.714-7.372-3.825-2.58 2.591-4.423 3.208-10.322 3.208-3.44 0-4.914-.493-5.775-1.974C1.475 42.57 0 34.797 0 25.294c0-8.638.983-13.45 3.317-15.547.985-.864 1.598-1.11 3.81-1.234 3.933-.247 3.933-.247 4.547-.247 3.194 0 4.177.494 7.986 4.195 1.72 0 2.089-.247 4.669-2.344zm-13.392 1.604l-2.335.125h-.737c-2.088 0-2.826.494-3.44 1.85-.737 1.975-1.229 6.54-1.229 12.34 0 7.28.86 12.462 2.58 17.029.738 1.85 1.352 2.22 3.318 2.22 6.143 0 7.372-.246 7.372-1.48 0-.37-.246-1.11-1.106-3.084-1.229-2.961-1.966-8.143-1.966-13.697 0-5.8.491-8.884 1.72-12.585.123-.374.246-.867.246-1.114 0-.864-1.475-1.604-3.072-1.604h-1.351zM34.65 27.639c5.038 0 8.355-.74 11.551-2.838 4.055-2.591 6.758-5.059 9.092-7.896 1.475.37 1.598.37 2.458.74 1.474.494 2.457.864 3.071 1.234.737.123.983.37 1.843 1.604 2.335 3.33 5.16 5.06 8.48 5.06 2.211 0 3.686-.987 3.686-2.467 0-1.358-2.335-5.8-5.16-9.747-3.564-5.059-5.284-6.17-11.552-7.897-4.3-1.233-8.723-2.097-10.566-2.097-3.072 0-6.02.74-9.215 2.22-3.317 1.481-9.094 5.06-12.411 7.527-2.949 2.344-4.546 3.084-6.512 3.084 0 0-.491 0-.983-.123-1.105 2.468-1.351 3.331-1.474 7.65l-.123 5.675c0 1.48.246 3.948.614 5.924.492 3.208.983 4.318 2.58 6.662 2.212 1.234 2.58 1.358 4.67 2.345 1.965.987 3.685 1.85 5.283 2.837 7.74 4.812 12.409 6.786 17.08 7.033-5.407-4.195-7.743-7.526-7.743-11.104 0-3.825 2.457-6.416 6.145-6.54-.245-.986-.368-1.48-.368-2.097 0-3.33 2.334-5.552 6.266-5.922-.492-.987-.615-1.234-.86-2.467-5.406 2.837-6.02 3.207-7.618 3.7-1.966.618-7.003 1.235-9.46 1.235-2.703 0-4.792-.987-4.792-2.344 0-.864.614-1.358 1.597-1.358.246 0 .246 0 3.686.37h.735v-.003zm7.986 15.054c0 2.097 1.966 5.058 5.284 7.773 3.931 3.33 6.757 4.688 9.706 4.688 2.334 0 4.054-1.234 4.054-2.838 0-.863-.737-1.974-2.211-3.084-.737-.617-.737-.74-5.775-3.702-1.474-.863-2.703-1.604-3.931-2.59-1.23-.988-.738-.494-1.843-1.604-1.106-1.11-1.475-1.234-2.212-1.234-1.72 0-3.072 1.234-3.072 2.59zm5.654-7.528c0 2.467 2.58 4.935 9.583 8.885 4.792 2.838 7.618 3.948 9.586 3.948 2.088 0 4.054-1.974 4.054-4.072 0-1.48-1.474-3.577-3.071-4.32-3.44-1.48-9.584-4.688-11.306-5.675-3.44-2.098-3.809-2.22-5.16-2.22-1.966 0-3.686 1.603-3.686 3.454zm23.223-6.293c-1.966 0-4.3-.493-6.266-1.357-1.351-.617-3.686-2.714-5.037-4.565-1.229-1.604-1.597-1.974-2.58-1.974-1.843 0-3.932 2.098-3.932 3.702 0 2.097 1.474 4.071 4.669 5.924 4.3 2.59 7.496 4.195 10.32 5.182 3.072 1.11 4.178 1.357 5.04 1.357 2.334 0 4.546-2.098 4.546-4.442 0-1.604-.615-2.838-2.458-4.812-1.845.739-2.827.985-4.302.985zm2.703-14.928c.369.493.737.987 1.106 1.604 1.843 2.467 2.949 5.675 2.949 8.02 2.948.123 5.406.123 6.634.123 2.212 0 4.548-.124 7.988-.124h8.97c5.16 0 8.231-1.357 8.231-3.454 0-2.098-2.457-3.455-6.88-3.825l-28.998-2.344z" fill="#4A4A4A" fill-rule="evenodd"/></svg>